<?xml version="1.0" encoding="UTF-8"?>
<svg id="Warstwa_1" data-name="Warstwa 1" xmlns="http://www.w3.org/2000/svg" viewBox="0 0 42.15 40">
  <defs>
    <style>
      .cls-1 {
        fill: #fff;
      }
    </style>
  </defs>
  <path d="m0,40V15.95l14-5.95v4l10-4.05v6.05h16v24H0Zm3-3h34v-17.99h-16v-4.61l-10,4v-3.95l-8,3.55v19Zm15.5-5h3v-8h-3v8Zm-8,0h3v-8h-3v8Zm16,0h3v-8h-3v8Zm13.5-16h-9L33,0h5l2,16ZM3,37h34H3Z"/>
  <rect class="cls-1" x="24.09" y="23.02" width="15.44" height="15.44"/>
  <rect class="cls-1" x="22.88" y="23.03" width="17.87" height="6.51"/>
  <path d="m41.07,29.75v8.71c0,.41-.15.77-.46,1.08s-.67.46-1.08.46h-15.44c-.41,0-.77-.15-1.08-.46s-.46-.67-.46-1.08v-8.71c-.48-.41-.8-.92-.95-1.52s-.14-1.2.05-1.8l1.1-3.47c.14-.46.38-.82.72-1.08s.74-.39,1.18-.39h14.21c.48,0,.9.13,1.26.4s.61.62.75,1.07l1.13,3.47c.19.6.2,1.2.04,1.8s-.48,1.1-.96,1.52Zm-6.94-.8c.5,0,.92-.16,1.26-.49s.48-.72.41-1.18l-.64-4.24h-2.57v4.24c0,.45.15.84.44,1.17s.66.5,1.1.5Zm-4.8,0c.48,0,.89-.16,1.22-.49s.5-.72.5-1.18v-4.24h-2.57l-.64,4.24c-.07.45.05.84.36,1.17s.69.5,1.13.5Zm-4.68,0c.41,0,.77-.14,1.07-.42s.48-.63.53-1.04l.67-4.45h-2.57l-1.18,3.75c-.17.53-.1,1.02.21,1.48s.74.68,1.28.68Zm14.31,0c.55,0,.98-.22,1.3-.67s.39-.94.22-1.49l-1.18-3.75h-2.57l.67,4.45c.05.41.23.76.53,1.04s.65.42,1.04.42Zm-14.88,9.51h15.44v-7.99s-.04.03-.17.03h-.4c-.43,0-.84-.09-1.22-.27s-.77-.46-1.14-.84c-.27.34-.62.61-1.03.81s-.87.3-1.36.3-.95-.07-1.32-.22c-.37-.15-.72-.39-1.07-.73-.26.31-.58.54-.98.71s-.84.24-1.34.24c-.53,0-1-.09-1.41-.28s-.76-.46-1.05-.82c-.41.36-.81.63-1.21.82-.39.19-.79.28-1.18.28h-.35c-.11,0-.18,0-.22-.03v7.99Zm15.44,0h-15.44,15.44Z"/>
</svg>