<?xml version="1.0" encoding="utf-8"?>
<!-- Generator: Adobe Illustrator 27.5.0, SVG Export Plug-In . SVG Version: 6.00 Build 0)  -->
<svg version="1.1" id="Warstwa_1" xmlns="http://www.w3.org/2000/svg" xmlns:xlink="http://www.w3.org/1999/xlink" x="0px" y="0px"
	 viewBox="0 0 48 48" style="enable-background:new 0 0 48 48;" xml:space="preserve">
<style type="text/css">
	.st0{fill:#FFFFFF;}
</style>
<path d="M33.8,42h-7.1v-8.2h-5.3V42H6V14.2h8.2V6h19.5v16.5 M9,39h5.2v-5.2H9V39z M9,30.8h5.2v-5.2H9V30.8z M9,22.5h5.2v-5.2H9V22.5
	z M17.2,30.8h5.2v-5.2h-5.2V30.8z M17.2,22.5h5.2v-5.2h-5.2V22.5z M17.2,14.2h5.2V9h-5.2V14.2z M25.5,30.8h5.2v-5.2h-5.2V30.8z
	 M25.5,22.5h5.2v-5.2h-5.2V22.5z M25.5,14.2h5.2V9h-5.2V14.2z M33.8,39H39v-5.2h-5.2V39z M33.8,30.8H39v-5.2h-5.2V30.8z"/>
<rect x="24.1" y="25" class="st0" width="15.4" height="15.4"/>
<rect x="22.9" y="25" class="st0" width="17.9" height="6.5"/>
<path d="M41.1,31.7v8.7c0,0.4-0.2,0.8-0.5,1.1C40.3,41.8,40,42,39.6,42H24.1c-0.4,0-0.8-0.2-1.1-0.5c-0.3-0.3-0.5-0.7-0.5-1.1v-8.7
	c-0.5-0.4-0.8-0.9-1-1.5c-0.2-0.6-0.1-1.2,0.1-1.8l1.1-3.5c0.1-0.5,0.4-0.8,0.7-1.1s0.7-0.4,1.2-0.4h14.2c0.5,0,0.9,0.1,1.3,0.4
	s0.6,0.6,0.7,1.1l1.1,3.5c0.2,0.6,0.2,1.2,0,1.8C41.9,30.8,41.6,31.3,41.1,31.7z M34.2,31c0.5,0,0.9-0.2,1.3-0.5
	c0.3-0.3,0.5-0.7,0.4-1.2L35.2,25h-2.6v4.2c0,0.4,0.1,0.8,0.4,1.2C33.3,30.8,33.7,31,34.2,31z M29.4,31c0.5,0,0.9-0.2,1.2-0.5
	c0.3-0.3,0.5-0.7,0.5-1.2V25h-2.6l-0.6,4.2c-0.1,0.4,0.1,0.8,0.4,1.2C28.5,30.8,28.9,31,29.4,31z M24.7,31c0.4,0,0.8-0.1,1.1-0.4
	c0.3-0.3,0.5-0.6,0.5-1l0.7-4.4h-2.6l-1.2,3.8c-0.2,0.5-0.1,1,0.2,1.5C23.7,30.7,24.1,31,24.7,31z M39,31c0.5,0,1-0.2,1.3-0.7
	c0.3-0.4,0.4-0.9,0.2-1.5L39.3,25h-2.6l0.7,4.4c0.1,0.4,0.2,0.8,0.5,1C38.2,30.8,38.6,31,39,31z M24.1,40.5h15.4v-8c0,0,0,0-0.2,0
	H39c-0.4,0-0.8-0.1-1.2-0.3c-0.4-0.2-0.8-0.5-1.1-0.8c-0.3,0.3-0.6,0.6-1,0.8c-0.4,0.2-0.9,0.3-1.4,0.3c-0.5,0-1-0.1-1.3-0.2
	c-0.4-0.1-0.7-0.4-1.1-0.7c-0.3,0.3-0.6,0.5-1,0.7s-0.8,0.2-1.3,0.2c-0.5,0-1-0.1-1.4-0.3c-0.4-0.2-0.8-0.5-1.1-0.8
	c-0.4,0.4-0.8,0.6-1.2,0.8c-0.4,0.2-0.8,0.3-1.2,0.3h-0.3c-0.1,0-0.2,0-0.2,0V40.5z M39.6,40.5H24.1H39.6z"/>
</svg>
