<?xml version="1.0" encoding="utf-8"?>
<!-- Generator: Adobe Illustrator 27.5.0, SVG Export Plug-In . SVG Version: 6.00 Build 0)  -->
<svg version="1.1" id="Warstwa_1" xmlns="http://www.w3.org/2000/svg" xmlns:xlink="http://www.w3.org/1999/xlink" x="0px" y="0px"
	 viewBox="0 0 48 48" style="enable-background:new 0 0 48 48;" xml:space="preserve">
<path d="M31.3,42.6L13.8,25c-0.2-0.2-0.3-0.3-0.4-0.5c-0.1-0.2-0.1-0.3-0.1-0.5s0-0.4,0.1-0.5c0.1-0.2,0.2-0.3,0.4-0.5L31.3,5.4
	c0.4-0.4,0.8-0.5,1.4-0.5c0.6,0,1,0.2,1.4,0.5c0.4,0.4,0.6,0.9,0.6,1.4s-0.2,1-0.6,1.4L18.4,24l15.7,15.8c0.4,0.4,0.6,0.9,0.6,1.4
	s-0.2,1-0.6,1.4c-0.4,0.4-0.9,0.6-1.4,0.6S31.7,43,31.3,42.6z" fill="white"/>
	
</svg>
