<?xml version="1.0" encoding="utf-8"?>
<!-- Generator: Adobe Illustrator 27.5.0, SVG Export Plug-In . SVG Version: 6.00 Build 0)  -->
<svg version="1.1" id="Warstwa_1" xmlns="http://www.w3.org/2000/svg" xmlns:xlink="http://www.w3.org/1999/xlink" x="0px" y="0px"
	 viewBox="0 0 48 48" style="enable-background:new 0 0 48 48;" xml:space="preserve">
<style type="text/css">
	.st0{opacity:0.9;}
	.st1{fill:#B1E2C5;}
	.st2{fill:#6CA291;}
	.st3{fill:#639E7B;}
</style>
<g class="st0">
	<circle class="st1" cx="24" cy="24" r="23.5"/>
	<path class="st2" d="M24,1c12.7,0,23,10.3,23,23S36.7,47,24,47S1,36.7,1,24S11.3,1,24,1 M24,0C10.7,0,0,10.7,0,24s10.7,24,24,24
		s24-10.7,24-24S37.3,0,24,0L24,0z"/>
</g>
<g class="st0">
	<g>
		<path class="st3" d="M19.7,31.2c-3.3,0-6-1.1-8.3-3.4S8,22.8,8,19.6s1.1-5.9,3.4-8.2s5-3.4,8.2-3.4s5.9,1.1,8.2,3.4s3.4,5,3.4,8.2
			c0,1.3-0.2,2.5-0.6,3.7c-0.4,1.2-1.1,2.3-1.9,3.4l11,10.9c0.3,0.3,0.4,0.6,0.4,1c0,0.4-0.1,0.7-0.4,1c-0.3,0.3-0.6,0.4-1,0.4
			s-0.7-0.1-1-0.4L26.7,28.7c-0.9,0.8-2,1.4-3.2,1.8C22.3,31,21,31.2,19.7,31.2z M19.6,28.5c2.5,0,4.5-0.9,6.3-2.6
			c1.7-1.7,2.6-3.8,2.6-6.3s-0.9-4.5-2.6-6.3c-1.7-1.7-3.8-2.6-6.3-2.6c-2.5,0-4.6,0.9-6.3,2.6c-1.7,1.7-2.6,3.8-2.6,6.3
			s0.9,4.5,2.6,6.3C15.1,27.6,17.2,28.5,19.6,28.5z"/>
	</g>
</g>
</svg>
